<svg width="25" height="33" viewBox="0 0 25 33" fill="none" xmlns="http://www.w3.org/2000/svg">
<rect x="18" y="4" width="5" height="27" fill="white"/>
<rect x="1" y="1" width="17" height="30" fill="white"/>
<rect x="9" y="10" width="6" height="4" fill="#CCCCCC"/>
<rect width="1" height="32" fill="#808080"/>
<rect x="18" width="1" height="6" fill="#808080"/>
<rect width="19" height="1" fill="#808080"/>
<rect x="1" y="31" width="23" height="1" fill="#CCCCCC"/>
<rect x="23" y="7" width="1" height="25" fill="#CCCCCC"/>
<rect x="24" y="6" width="1" height="27" fill="black"/>
<rect y="32" width="25" height="1" fill="black"/>
<rect x="18" y="6" width="7" height="1" fill="black"/>
<rect x="23" y="5" width="1" height="1" fill="black"/>
<rect x="22" y="4" width="1" height="1" fill="black"/>
<rect x="21" y="3" width="1" height="1" fill="black"/>
<rect x="9" y="23" width="1" height="1" fill="#CCCCCC"/>
<rect x="15" y="23" width="1" height="1" fill="#CCCCCC"/>
<rect x="9" y="17" width="1" height="1" fill="#CCCCCC"/>
<rect x="13" y="10" width="1" height="1" fill="#808080"/>
<rect x="9" y="11" width="6" height="2" fill="#808080"/>
<rect x="10" y="10" width="4" height="4" fill="#808080"/>
<rect x="20" y="2" width="1" height="1" fill="black"/>
<rect x="19" y="1" width="1" height="1" fill="black"/>
<rect x="19" y="2" width="1" height="1" fill="#808080"/>
<rect x="20" y="3" width="1" height="1" fill="#808080"/>
<rect x="21" y="4" width="1" height="1" fill="#808080"/>
<rect x="22" y="5" width="1" height="1" fill="#808080"/>
<rect x="21" y="5" width="1" height="1" fill="#CCCCCC"/>
<rect x="20" y="4" width="1" height="1" fill="#CCCCCC"/>
<rect x="19" y="3" width="1" height="1" fill="#CCCCCC"/>
<rect x="10" y="17" width="5" height="7" fill="#0000FF"/>
<rect x="11" y="10" width="2" height="4" fill="#0000FF"/>
<rect x="10" y="11" width="4" height="2" fill="#0000FF"/>
<rect x="8" y="16" width="7" height="1" fill="#0000FF"/>
<rect x="8" y="24" width="9" height="1" fill="#0000FF"/>
</svg>
